<svg width="450" height="192" viewBox="0 0 450 192" fill="none" xmlns="http://www.w3.org/2000/svg">
<path fill-rule="evenodd" clip-rule="evenodd" d="M344.488 -338.694C411.786 -356.068 478.099 -408.366 542.942 -383.337C609.492 -357.649 655.595 -285.211 665.911 -214.625C675.741 -147.371 620.433 -91.8023 594.746 -28.8742C571.585 27.8651 574.306 101.996 522.991 135.501C471.919 168.847 405.061 127.372 344.488 134.524C270.793 143.227 197.829 216.776 132.481 181.614C68.6596 147.273 82.2104 51.2249 60.9269 -18.0536C40.1033 -85.8352 -23.8082 -156.41 9.3848 -219.07C43.6223 -283.701 139.841 -272.463 208.723 -297.052C254.422 -313.366 297.505 -326.564 344.488 -338.694Z" fill="#37474F"/>
</svg>
