<svg width="420" height="219" viewBox="0 0 420 219" fill="none" xmlns="http://www.w3.org/2000/svg">
<path fill-rule="evenodd" clip-rule="evenodd" d="M73.5398 5.3142C147.065 -2.75618 239.408 -9.57894 285.744 48.0752C333.424 107.401 263.351 198.448 286.923 270.817C310.528 343.285 439.098 378.81 417.257 451.83C395.637 524.112 276.831 492.959 210.004 527.976C158.081 555.184 131.376 622.388 73.5398 631.94C12.3476 642.046 -45.7766 609.054 -100.138 579.196C-162.019 545.208 -250.368 518.511 -260.255 448.606C-270.475 376.348 -172.652 336.577 -143.941 269.485C-119.477 212.315 -146.842 139.228 -107.318 91.2192C-63.8349 38.4003 5.5329 12.7789 73.5398 5.3142Z" fill="#37474F"/>
</svg>
